<svg width="20" height="18" viewBox="0 0 20 18" fill="none" xmlns="http://www.w3.org/2000/svg">
<path d="M18.5525 -0.00308982C18.3117 0.014427 18.0754 0.0709115 17.8527 0.16416H17.8497C17.636 0.24891 16.6197 0.67641 15.0747 1.32441L9.53822 3.65616C5.56547 5.32866 1.66022 6.97566 1.66022 6.97566L1.70672 6.95766C1.70672 6.95766 1.43747 7.04616 1.15622 7.23891C0.982463 7.34948 0.832947 7.49414 0.716717 7.66416C0.578717 7.86666 0.467717 8.17641 0.508967 8.49666C0.576467 9.03816 0.927467 9.36291 1.17947 9.54216C1.43447 9.72366 1.67747 9.80841 1.67747 9.80841H1.68347L5.34572 11.0422C5.50997 11.5694 6.46172 14.6984 6.69047 15.4192C6.82547 15.8497 6.95672 16.1189 7.12097 16.3244C7.20047 16.4294 7.29347 16.5172 7.40522 16.5877C7.46331 16.6215 7.52526 16.6481 7.58972 16.6672L7.55222 16.6582C7.56347 16.6612 7.57247 16.6702 7.58072 16.6732C7.61072 16.6814 7.63097 16.6844 7.66922 16.6904C8.24897 16.8659 8.71472 16.5059 8.71472 16.5059L8.74097 16.4849L10.9032 14.5162L14.5272 17.2964L14.6097 17.3317C15.365 17.6632 16.13 17.4787 16.5342 17.1532C16.9415 16.8254 17.0997 16.4062 17.0997 16.4062L17.126 16.3387L19.9265 1.99191C20.006 1.63791 20.0262 1.30641 19.9385 0.98466C19.848 0.659029 19.639 0.378966 19.3527 0.19941C19.1123 0.0532463 18.8335 -0.0173034 18.5525 -0.00308982ZM18.4767 1.53441C18.4737 1.58166 18.4827 1.57641 18.4617 1.66716V1.67541L15.6875 15.8729C15.6755 15.8932 15.6552 15.9374 15.5997 15.9817C15.5412 16.0282 15.4947 16.0574 15.251 15.9607L10.8185 12.5624L8.14097 15.0029L8.70347 11.4104L15.9455 4.66041C16.244 4.38291 16.1442 4.32441 16.1442 4.32441C16.1652 3.98391 15.6935 4.22466 15.6935 4.22466L6.56147 9.88191L6.55847 9.86691L2.18147 8.39316V8.39016L2.17022 8.38791C2.17789 8.38536 2.1854 8.38236 2.19272 8.37891L2.21672 8.36691L2.23997 8.35866C2.23997 8.35866 6.14822 6.71166 10.121 5.03916C12.11 4.20141 14.114 3.35766 15.6552 2.70666C16.5693 2.32191 17.4843 1.93941 18.4002 1.55916C18.4617 1.53516 18.4325 1.53441 18.4767 1.53441Z" fill="white"/>
</svg>
